PathFileType	4	(X/Y/Z)	s03c0202.trc
DataRate	CameraRate	NumFrames	NumMarkers	Units	OrigDataRate	OrigDataStartFrame	OrigNumFrames
200	200	6	52	mm	200	500	2000
Frame#	Time	racr			lacr			c7			jug			rlel			rdr			llel			ldr			s2			lic			ric			lasi			rasi			rpsi			lpsi			rgt			lgt			rth1			rth2			rth3			rth4			rlfc			rmfc			rsh1			rsh2			rsh3			rsh4			rlmal			rmmal			rcal			rtoe			rmt5			rmt1			lth1			lth2			lth4			lth3			llfc			lmfc			lsh1			lsh2			lsh3			lsh4			llmal			lmmal			lcal			ltoe			lmt1			lmt5			SBIKE			LBIKE			RBIKE			
		X1	Y1	Z1	X2	Y2	Z2	X3	Y3	Z3	X4	Y4	Z4	X5	Y5	Z5	X6	Y6	Z6	X7	Y7	Z7	X8	Y8	Z8	X9	Y9	Z9	X10	Y10	Z10	X11	Y11	Z11	X12	Y12	Z12	X13	Y13	Z13	X14	Y14	Z14	X15	Y15	Z15	X16	Y16	Z16	X17	Y17	Z17	X18	Y18	Z18	X19	Y19	Z19	X20	Y20	Z20	X21	Y21	Z21	X22	Y22	Z22	X23	Y23	Z23	X24	Y24	Z24	X25	Y25	Z25	X26	Y26	Z26	X27	Y27	Z27	X28	Y28	Z28	X29	Y29	Z29	X30	Y30	Z30	X31	Y31	Z31	X32	Y32	Z32	X33	Y33	Z33	X34	Y34	Z34	X35	Y35	Z35	X36	Y36	Z36	X37	Y37	Z37	X38	Y38	Z38	X39	Y39	Z39	X40	Y40	Z40	X41	Y41	Z41	X42	Y42	Z42	X43	Y43	Z43	X44	Y44	Z44	X45	Y45	Z45	X46	Y46	Z46	X47	Y47	Z47	X48	Y48	Z48	X49	Y49	Z49	X50	Y50	Z50	X51	Y51	Z51	X52	Y52	Z52	
500	2.5000	538.038711	1379.645189	-96.794847	526.345269	1391.354172	-402.993912	462.169085	1468.522175	-245.099547	466.792569	1295.660543	-247.628163	547.910246	1177.182935	99.625639	721.976187	991.914431	-23.388743	553.807171	1186.823949	-592.188240	715.928049	977.127521	-472.966563	-75.864498	1206.783431	-233.979668	95.884272	1230.867912	-409.750684	93.108013	1235.731776	-48.854631	117.420000	1167.396036	-373.322472	118.852220	1164.944227	-93.709889	-47.337518	1256.664918	-187.060965	-42.983718	1257.323109	-269.554590	29.501244	1119.551943	-40.227313	46.408855	1147.694308	-437.803111	105.110308	967.823476	-21.500472	174.205486	911.766032	-18.394863	208.766449	833.563107	-28.930414	203.850777	933.611104	-23.239527	272.163259	725.019423	-57.676772	285.414036	710.511116	-173.156016	249.099451	558.946366	-30.231033	262.973901	471.336188	-42.820112	230.423007	389.157089	-46.646627	293.068418	470.705294	-67.620950	206.266904	258.043670	-65.752819	230.301945	271.684095	-150.624950	150.134852	208.125023	-101.804103	460.393439	223.103167	-116.133892	345.921399	192.938167	-40.426637	365.565340	220.266830	-153.770464	160.789779	1066.930309	-468.850721	244.175452	1048.379315	-480.670435	262.590801	1078.392258	-469.208321	309.023555	987.068520	-490.181975	427.934367	915.941325	-484.304059	435.463771	902.764184	-352.334944	302.154466	796.395371	-485.252718	260.462715	727.307550	-455.933077	182.493038	683.838505	-441.389082	285.891730	708.698741	-434.259133	88.789350	607.731897	-408.762207	127.825836	607.656071	-322.596460	12.884343	602.776444	-357.747595	260.527159	417.071199	-358.854273	182.497727	467.302525	-314.721028	150.052775	467.749280	-430.599427	-216.616950	944.489511	-234.096985	-11.750930	80.910964	-435.537013	-11.513776	80.382306	-35.158505	
501	2.5050	539.299400	1380.615668	-100.157937	523.991630	1391.444115	-406.311239	461.843367	1469.193159	-247.866585	466.203012	1295.933158	-250.299191	549.923252	1179.016601	97.612753	722.743989	992.217925	-24.325674	551.666200	1185.527201	-593.395871	716.353258	977.102213	-473.369128	-75.665216	1207.458542	-230.156116	94.117421	1231.829164	-407.962860	95.170443	1235.843759	-47.122202	117.064374	1168.434418	-371.554468	120.399021	1165.626612	-92.137439	-46.430592	1257.071761	-183.317638	-43.161731	1257.717611	-265.623193	30.346723	1119.121506	-37.985621	45.810683	1149.677811	-435.130095	102.895537	966.394895	-19.324448	170.816657	909.009871	-16.202089	203.896145	830.229142	-26.942722	200.888079	930.347533	-21.015827	265.207568	720.739134	-56.436184	279.057623	706.648165	-171.685202	241.789969	554.771350	-29.268358	255.555097	467.093680	-41.963632	222.950495	385.074333	-46.067307	285.794250	466.530945	-66.585535	198.906400	254.073111	-66.123054	225.549493	268.328748	-149.252633	142.542948	205.304593	-101.952382	453.015190	214.726563	-115.985309	338.030423	186.469182	-40.475056	358.310363	213.597703	-153.692615	161.256876	1070.161026	-467.262117	244.866296	1052.634049	-479.241486	262.941795	1082.770759	-467.487676	310.392841	992.135785	-489.050655	430.272675	922.811256	-483.786645	439.074456	908.655291	-351.093096	304.800809	803.202467	-483.669303	263.315816	733.983326	-454.941369	185.506883	690.349119	-440.328354	288.793446	715.382124	-433.460355	92.425253	613.196533	-407.790449	131.670988	613.714683	-322.041496	16.456359	606.051239	-356.140155	269.192079	427.307221	-359.687320	189.352562	475.197969	-315.528412	156.727798	475.030943	-430.489239	-216.641198	944.553568	-233.928543	-11.774450	80.946273	-435.533803	-11.523988	80.369473	-35.143447	
502	2.5100	540.863226	1381.366153	-102.661399	521.387998	1391.232545	-408.989938	461.382944	1469.442096	-250.226403	465.526400	1296.238621	-253.227578	551.997661	1180.773010	95.722655	723.581103	992.636770	-25.669020	549.475757	1184.139246	-594.450990	716.660781	977.202027	-474.108342	-75.500859	1208.185177	-225.416215	92.412677	1232.847228	-406.513196	96.991566	1236.095825	-45.587208	116.571397	1169.516593	-369.738990	121.363704	1166.309535	-91.075817	-45.884133	1257.570697	-179.618882	-42.466103	1257.463610	-262.874646	31.214390	1118.837424	-35.658840	45.290948	1151.728923	-432.494201	100.789243	965.406879	-17.163760	167.694686	906.664652	-13.993312	199.357098	827.403962	-24.998549	198.421355	927.736301	-18.758258	258.466784	717.042959	-55.073704	273.016598	703.270944	-170.333563	234.750360	551.120231	-28.344258	248.401796	463.447837	-41.264484	215.652912	381.474053	-45.493278	278.652231	462.927677	-65.769513	191.376531	250.770761	-65.788114	218.460873	265.050104	-148.728825	134.689848	203.094426	-101.946933	445.203160	207.031442	-115.880617	329.666478	180.663014	-40.492380	350.675662	207.530280	-153.650793	161.759830	1073.456543	-465.538117	245.566648	1057.019325	-477.788440	263.342490	1087.217273	-465.678021	311.817464	997.262048	-487.810560	432.482946	929.623237	-482.902127	441.381212	915.103430	-351.470083	307.425844	809.890540	-482.466305	266.440157	740.302683	-454.118444	188.901403	696.072120	-439.338844	291.991361	721.292377	-432.014056	96.582468	617.962816	-406.825685	136.979498	618.447283	-321.412252	20.502300	608.807245	-355.057796	277.992387	436.883975	-360.247965	196.741902	482.804086	-315.652452	164.082853	481.903837	-430.321099	-216.683125	944.616289	-233.750515	-11.813984	80.987313	-435.507740	-11.553994	80.376997	-35.124990	
503	2.5150	541.991721	1382.221535	-106.108591	518.807859	1391.287513	-412.074510	460.926742	1469.960000	-252.959271	464.956213	1296.683282	-256.564802	553.976036	1182.483039	93.695521	724.551979	993.090899	-26.847522	547.166831	1182.713601	-595.415553	716.993573	977.321252	-474.838695	-75.390884	1208.868255	-221.432853	90.977201	1233.933722	-405.364276	98.788572	1236.564319	-44.035416	115.896007	1170.517862	-367.816133	122.847604	1166.976484	-89.476546	-45.392283	1258.136920	-176.037205	-42.730252	1258.077957	-259.133638	31.892811	1118.611775	-33.492792	44.962523	1153.841597	-430.025308	98.865322	964.693269	-15.038801	164.747066	904.911441	-11.806268	195.109254	825.040795	-23.083652	195.983060	925.048255	-16.695011	252.305940	713.782396	-53.848630	267.303282	700.297263	-169.071704	227.971752	548.004646	-27.487605	241.352458	460.376216	-40.582010	208.443737	378.458760	-44.997549	271.653104	459.669804	-65.087588	183.646861	247.976627	-65.672469	211.190955	262.257719	-148.231958	126.417650	201.487393	-101.922190	437.083973	199.847885	-115.743788	321.016177	175.364076	-40.501344	342.681089	202.008265	-153.473432	162.291734	1076.940532	-463.694091	246.250315	1061.441092	-476.232876	263.702000	1091.768265	-463.783976	313.140712	1002.395349	-486.438276	434.458192	936.342251	-481.932600	443.993891	921.166760	-350.593318	310.144014	816.123985	-481.242757	269.789221	745.992733	-453.093357	192.674944	701.117942	-438.357096	295.494897	727.145768	-431.220410	101.248435	621.936334	-405.944387	141.980610	622.692262	-320.586007	25.066079	610.773062	-353.988113	286.818660	446.050435	-360.543302	205.099363	489.465218	-315.410973	171.845036	488.057766	-430.140079	-216.734274	944.641009	-233.569239	-11.823235	81.014320	-435.495995	-11.892803	80.837099	-35.080186	
504	2.5200	543.090282	1383.049786	-109.525780	516.175543	1391.237465	-415.026092	460.445881	1470.307978	-255.554863	464.548242	1297.189494	-258.879701	556.166742	1184.274869	91.756575	725.713386	993.501421	-27.796949	544.846868	1181.233578	-596.215684	717.542670	977.668894	-475.531181	-75.387607	1209.536109	-217.565179	89.544586	1235.097633	-404.298196	100.255968	1237.555669	-41.719929	115.077357	1171.489910	-365.830860	124.344306	1168.007020	-87.678784	-44.949638	1258.738630	-172.581351	-42.994044	1258.788840	-255.516425	32.430295	1118.586217	-31.393346	44.688170	1156.062320	-427.571428	97.183952	964.149453	-12.923227	161.934257	903.546292	-9.308676	191.140875	823.107252	-21.177720	193.132132	923.363301	-14.229182	246.590562	711.071984	-52.678280	261.987196	697.779824	-167.895547	221.461180	545.374646	-26.658349	234.409797	457.789686	-39.966784	201.177543	375.990501	-44.505210	264.765699	456.923761	-64.398632	175.812930	245.732284	-65.396756	203.742254	259.932798	-147.640794	118.062454	200.467295	-101.741207	428.500694	193.411518	-115.581388	312.043463	170.749349	-40.436071	333.498241	196.280204	-153.754408	162.749396	1080.607115	-461.749515	246.876415	1065.949080	-474.516453	264.093040	1096.287447	-461.796554	314.307965	1007.640280	-485.135459	436.212962	943.011888	-480.876800	446.362496	927.216951	-349.304527	313.085534	821.806482	-480.017008	273.511075	751.128618	-452.123727	196.837236	705.358032	-437.454086	298.892754	732.334010	-429.872661	106.399755	624.943579	-405.282390	147.315711	626.031065	-319.731999	30.579818	612.098831	-352.733282	296.100640	454.363039	-360.865136	213.555147	495.679326	-315.376818	179.973430	493.600564	-429.987198	-216.787475	944.647507	-233.409859	-11.808234	81.047496	-435.490113	-11.537133	80.397087	-35.123646	
505	2.5250	544.232659	1383.549770	-112.945847	513.631586	1391.649186	-419.465454	459.908360	1470.614387	-258.142210	463.954925	1297.686061	-261.332891	558.385954	1185.959132	89.641707	726.931820	993.962211	-28.568658	542.408424	1179.706215	-596.943260	717.959276	977.885430	-476.284319	-75.521474	1210.398250	-213.721815	88.956301	1236.973670	-405.687920	101.844401	1238.144296	-40.493900	114.294816	1172.580545	-363.958315	125.652500	1168.998230	-86.194428	-44.667043	1259.507659	-169.320853	-43.293382	1259.672780	-251.973772	32.855345	1118.809335	-29.256775	44.413633	1158.518662	-425.183306	95.732534	964.013743	-10.838721	159.758909	902.415342	-7.310499	187.640066	821.580900	-19.337311	191.057683	921.911158	-12.174260	241.339004	708.715585	-51.584218	256.958568	695.797906	-167.038850	215.223794	543.481741	-25.945080	227.533136	455.821886	-39.439699	193.844272	374.221462	-43.986808	257.976912	454.731200	-63.733387	167.651982	244.186976	-65.050088	195.989378	258.168153	-146.958576	109.411130	199.957984	-101.553936	419.578194	187.386671	-115.351252	302.713279	166.658213	-40.349136	324.755436	191.992164	-153.659358	163.089559	1084.438673	-459.796954	247.362937	1070.442550	-472.695284	264.345791	1100.834632	-459.698598	315.251628	1012.716681	-483.661673	437.667179	949.518795	-479.701622	448.512378	933.443328	-348.027497	316.084114	827.032851	-478.827411	277.399269	755.713947	-451.165507	201.285036	709.060183	-436.590609	303.579047	737.282805	-429.544130	111.883713	627.235263	-404.669988	152.788302	628.459174	-319.351056	36.065358	612.617777	-352.134154	305.875368	462.093078	-360.969061	222.212640	501.265423	-315.367246	188.642525	498.650636	-429.966758	-216.803456	944.667061	-233.156335	-11.822847	80.996718	-435.537140	-11.881999	80.819225	-35.069122	
